<svg xmlns="http://www.w3.org/2000/svg" width="1200" height="1400" viewBox="0 0 1200 1400" fill="none">
  <rect width="1200" height="1400" rx="64" fill="#F7FAFF"/>
  <g transform="translate(250 120)">
    <rect width="700" height="700" rx="120" fill="#F7FAFF" stroke="#D9E6F7" stroke-width="6"/>
    <g transform="translate(130 108)">
      <path d="M0 0H90V484H0V0Z" fill="#0B1830"/>
      <path d="M120 0H320L150 168H0L120 0Z" fill="#26D7F6"/>
      <path d="M312 0H520L312 206L270 72L312 0Z" fill="#3C7CFF"/>
      <path d="M168 244L532 594H340L34 318L168 244Z" fill="#26D7F6"/>
      <path d="M460 34H592V166H460Z" fill="#0F2A55" fill-opacity="0.92"/>
      <circle cx="654" cy="92" r="18" fill="#3C7CFF"/>
      <circle cx="654" cy="92" r="34" stroke="#9CEFFF" stroke-opacity="0.42" stroke-width="6"/>
      <circle cx="712" cy="38" r="11" fill="#26D7F6"/>
      <circle cx="732" cy="132" r="10" fill="#0F2A55"/>
      <path d="M654 92L712 38M654 92L732 132" stroke="#7BE8FF" stroke-width="6" stroke-linecap="round"/>
    </g>
  </g>
  <g text-anchor="middle">
    <text x="600" y="1010" fill="#0B1830" font-size="166" font-family="Inter, Helvetica Neue, Arial, sans-serif" font-weight="700" letter-spacing="12">KORP</text>
    <text x="600" y="1098" fill="#28CDEA" font-size="48" font-family="Inter, Helvetica Neue, Arial, sans-serif" font-weight="700" letter-spacing="10">AI AUTOMATION</text>
    <path d="M350 1140H850" stroke="#D4E2F2" stroke-width="4"/>
    <text x="600" y="1204" fill="#58708F" font-size="28" font-family="Inter, Helvetica Neue, Arial, sans-serif" font-weight="500" letter-spacing="3">PREMIUM AI AUTOMATION FOR DIGITAL BUSINESS</text>
  </g>
</svg>
