<svg xmlns="http://www.w3.org/2000/svg" width="1024" height="1024" viewBox="0 0 1024 1024" fill="none">
  <rect width="1024" height="1024" rx="120" fill="#F7FAFF"/>
  <g transform="translate(172 144)">
    <path d="M0 0H88V736H0V0Z" fill="#0B1830"/>
    <path d="M116 0H306L144 250H0L116 0Z" fill="#26D7F6"/>
    <path d="M300 0H502L300 312L258 108L300 0Z" fill="#3C7CFF"/>
    <path d="M160 364L512 736H322L32 438L160 364Z" fill="#26D7F6"/>
    <path d="M446 40L572 40L572 166L446 166Z" fill="#0F2A55" fill-opacity="0.9"/>
    <path d="M466 60L552 60L552 146L466 146Z" fill="#F7FAFF" fill-opacity="0.08"/>
    <circle cx="636" cy="104" r="20" fill="#3C7CFF"/>
    <circle cx="636" cy="104" r="36" stroke="#A9F2FF" stroke-opacity="0.35" stroke-width="8"/>
    <circle cx="676" cy="64" r="12" fill="#26D7F6"/>
    <circle cx="676" cy="64" r="24" stroke="#A9F2FF" stroke-opacity="0.28" stroke-width="6"/>
    <circle cx="692" cy="136" r="10" fill="#0F2A55"/>
    <path d="M636 104L676 64M636 104L692 136" stroke="#7BE8FF" stroke-width="8" stroke-linecap="round"/>
  </g>
</svg>
